<?xml version="1.0" encoding="utf-8"?>
<!-- Generator: Adobe Illustrator 16.0.0, SVG Export Plug-In . SVG Version: 6.00 Build 0)  -->
<!DOCTYPE svg PUBLIC "-//W3C//DTD SVG 1.1//EN" "http://www.w3.org/Graphics/SVG/1.1/DTD/svg11.dtd">
<svg version="1.1" id="图层_1" xmlns="http://www.w3.org/2000/svg" xmlns:xlink="http://www.w3.org/1999/xlink" x="0px" y="0px"
	 width="194.326px" height="43.714px" viewBox="169.64 118.625 194.326 43.714"
	 enable-background="new 169.64 118.625 194.326 43.714" xml:space="preserve">
<g>
	<path d="M176.502,124.824h26.281v3.028l-17.73,25.061h17.73v6.106h-26.72v-3.712l17.342-24.424h-16.9v-6.058H176.502z"/>
	<path d="M236.827,154.719c-3.517,3.468-8.061,5.08-12.994,5.08c-12.7,0-18.072-8.745-18.122-17.634
		c-0.048-8.94,5.764-18.025,18.122-18.025c4.642,0,9.037,1.758,12.555,5.227l-4.299,4.151c-2.247-2.198-5.275-3.224-8.255-3.224
		c-8.254,0-11.82,6.155-11.771,11.871c0.048,5.666,3.321,11.577,11.771,11.577c2.98,0,6.351-1.221,8.598-3.468L236.827,154.719z"/>
	<path d="M266.72,134.74c0,2.637-1.271,5.178-4.446,6.595c4.005,1.221,5.471,5.47,5.471,7.619c0,7.621-5.715,10.063-12.799,10.063
		c-5.421,0-10.796,0-16.217,0v-34.194c5.374,0,10.796,0,16.217,0C261.688,124.824,266.72,127.852,266.72,134.74z M245.079,138.551
		h9.867c4.055,0,5.374-1.709,5.374-3.664c0-1.563-1.269-4.202-5.374-4.202h-9.867V138.551z M245.079,153.01h9.867
		c2.638,0,6.399-0.879,6.399-4.104c0-3.077-3.76-4.689-6.399-4.689h-9.867V153.01L245.079,153.01z"/>
	<path d="M279.659,118.673l3.859,3.712l2.931-2.785l3.663,3.81l-4.054,3.907v28.916l-6.399,6.106l-3.615-3.762l4.738-4.542v-7.621
		l-4.738,4.542l-3.614-3.761l8.353-8.108v-6.74l-4.738,4.494l-3.614-3.761l7.327-7.034l-3.712-3.615L279.659,118.673z
		 M312.629,162.29l-14.019-12.749l-1.026,0.929v6.544h4.738v5.275h-10.013v-7.082l-2.198,2.002l-3.516-3.859l6.74-6.203h-3.174
		v-12.309h24.421v12.309h-10.794l4.543,4.152l4.298-3.957l3.565,3.907l-3.957,3.565l3.957,3.565L312.629,162.29z M288.55,128.246
		h11.234v-1.904h-9.33v-5.227h9.33v-2.49h5.275v2.49h9.232v5.227h-9.232v1.904h11.136v5.275H288.55V128.246z M309.309,141.873
		v-1.807h-13.872v1.807H309.309z"/>
	<path d="M338.86,137.429v2.882h20.123v12.553l-28.279,9.377l-1.66-4.933l6.057-2.002l-2.734-6.399l4.835-2.1l2.932,6.791
		l13.627-4.543v-3.468h-17.587l-9.964,4.006l-1.954-4.885l9.329-3.761v-1.807h-4.103v-7.474l-4.543,4.347l-3.614-3.761l5.423-5.275
		h-4.396v-5.275h7.131v-3.126h5.274v3.126h7.133v5.275h-4.444l5.47,5.275l-3.664,3.761l-4.494-4.347v5.764L338.86,137.429
		L338.86,137.429z M351.558,139.138v-7.473l-4.493,4.347l-3.664-3.761l5.423-5.275h-4.396v-5.275h7.131v-3.126h5.275v3.126h7.132
		v5.275h-4.396l5.423,5.275l-3.615,3.761l-4.543-4.347v7.473H351.558z"/>
</g>
</svg>
